<svg xmlns="http://www.w3.org/2000/svg" viewBox="0 0 510.78 119.96"><defs><style>.cls-1{fill:#fff;}.cls-2{fill:#81b229;}</style></defs><title>cim_feher</title><g id="Réteg_1" data-name="Réteg 1"><g id="Cím"><path class="cls-1" d="M42.57,259.21H33.25V201.56h9.32V231.7h.15l12.73-30.14h1.66l-8.79,20.73,12.81,36.92H51.66l-8.94-26.48h-.15Z" transform="translate(-33.25 -156.24)"/><path class="cls-1" d="M82.64,259.85a4.86,4.86,0,0,1-1.51.16c-2.73,0-5.08-1.2-5.69-4h-.15c-.45,2.71-2.8,4-5.45,4-4.62,0-6.67-2.79-6.67-11.33,0-10.2,3.49-13.71,11.82-15.23v-8c0-5.74-.61-6.7-2.95-6.7a6.06,6.06,0,0,0-5.31,3.43l1.52,7.81c-2.73-.08-4-1.75-4-4.7,0-4.07,3.41-8,9.77-8,2.88,0,8.64.31,8.64,9.4Zm-11.82-6.22c0,1.75,0,3.27,2.05,3.27S75,254.27,75,251.39V235c-3.41.64-4.17,1.91-4.17,5.5Z" transform="translate(-33.25 -156.24)"/><path class="cls-1" d="M88.93,259.21V219.34l7.5-1.52v3.75l.15.08a6.9,6.9,0,0,1,6.36-4.38c2.88,0,4.78,1.59,5.38,4.54h.15a6.59,6.59,0,0,1,6.06-4.54c4.85,0,6.14,4.38,6.14,9.17v32.77H113V224.44c0-2.95-.38-4.06-1.59-4.06s-2.8,2.23-2.8,6v32.85H101V224.44c0-2.95-.38-4.06-1.59-4.06s-2.8,2.23-2.8,6v32.85Z" transform="translate(-33.25 -156.24)"/><path class="cls-1" d="M133.93,238.72V254c0,3.35,1.06,4.54,3.63,4.54,4,0,6.37-5.1,7.43-11.8h1.36c-.83,8.05-3.33,13.32-10.3,13.32-5.84,0-10.15-5.51-10.15-20.82,0-10.6,1.13-21.92,10.38-21.92,5.83,0,10.45,3.18,10.45,21.45Zm-3-25.6,7.8-13.32h7.12l-12.57,13.32Zm3,24.16H139V223.8c0-4.14-.68-5.42-2.57-5.42-2.05,0-2.5,1.28-2.5,3.67Z" transform="translate(-33.25 -156.24)"/><path class="cls-1" d="M153.32,203.07l7.65-1.51v56.37h2.27v1.28h-9.92Z" transform="translate(-33.25 -156.24)"/><path class="cls-1" d="M176,238.72V254c0,3.35,1.06,4.54,3.64,4.54,4,0,6.36-5.1,7.42-11.8h1.37c-.84,8.05-3.34,13.32-10.31,13.32-5.83,0-10.15-5.51-10.15-20.82,0-10.6,1.14-21.92,10.38-21.92,5.83,0,10.45,3.18,10.45,21.45Zm0-1.44h5.08V223.8c0-4.14-.69-5.42-2.58-5.42-2.05,0-2.5,1.28-2.5,3.67Z" transform="translate(-33.25 -156.24)"/><ellipse class="cls-1" cx="145.72" cy="23.8" rx="14" ry="14.74"/><path class="cls-2" d="M198.81,211.77a.38.38,0,0,1,.71,0,5.06,5.06,0,0,0,1,1.94c.84.72,2,1.6,2.88,1.46.67-.11,1.55-1.67,1.62-2.65a6,6,0,0,0-5.72-6.25,5.83,5.83,0,0,0-5.92,5.69c0,1,.74,1.79,1.36,2.74.12.19.81.2,1,.08a13.2,13.2,0,0,0,2.24-1.52A4.52,4.52,0,0,0,198.81,211.77Z" transform="translate(-33.25 -156.24)"/><path class="cls-2" d="M212.46,217.24c0,.68,2.77,1,2.69,1.22-.52,1.61-.91,3.32,1.17,3.79s2.73-1.19,3.08-2.94c.45-2.28.09-4.64-1.89-5.62a8.13,8.13,0,0,0-5.29-.42c-.8.19-1.86,2.34-1.67,3.36.31,1.66,1.84,1.57,3.18.84C214.06,217.29,211.8,217.34,212.46,217.24Z" transform="translate(-33.25 -156.24)"/><path class="cls-2" d="M202.27,203.22c-5.4-.46-10.85-.08-16.28-.08l-18.57-.7a15.16,15.16,0,0,1-7.49-2.87c0-.15.11-.13.2-.13,8.67.73,27.76,1.67,32.55-3.51,0,0,0-.21-.1-.14a30.33,30.33,0,0,1-6.52,2.11,44,44,0,0,1-11.7.5c-5.41-.35-9.83-.34-15.73-.94a1.77,1.77,0,0,1-1.1-.53c-1.8-2.38-2.18-4.92-1.63-8.32a27.87,27.87,0,0,1,3.07-8.85c4.8-8.61,11.95-14.44,20.22-18.65,7-3.55,14.33-5.48,22.08-4.69,5.29.54,6,2.11,3.75,7.14-.11.25-.23.5-.33.76-1.28,3.14-.67,4.69,2.42,5.17s6,.51,9,.75c11,.86,19.51,6.33,25,16.85,12,22.88,4.26,47.5-9.07,60.62-9.73,9.59-21.19,13.15-34,8.24-8.8-3.36-13.64-11.62-13-21.55.66-11,10.52-18.77,19.66-15.55,8.07,2.83,10.89,13.45,5.11,19.23-3,3-7.72,3.14-10.39.38-1.11-1.15-1.82-2.65-.62-3.9.58-.6,2.06-.22,3.13-.21s2.39.58,3.06.06c.82-.62,1.68-2.31,1.44-3.18a6.89,6.89,0,0,0-2.64-4c-3.4-1.83-7.56.88-8.49,5.15a10.6,10.6,0,0,0,6.58,12.14c6.17,2.13,13.62-1,16.83-7.1C226.25,223.06,217.45,204.48,202.27,203.22Zm-23.57-36.6c-6.65-.08-12.07,5.71-12.1,12.9s5.42,13.09,12,13,11.81-5.84,11.85-12.92S185.18,166.69,178.7,166.62Z" transform="translate(-33.25 -156.24)"/><ellipse class="cls-2" cx="140.83" cy="27.75" rx="3.11" ry="3.38"/><path class="cls-1" d="M298.5,260.33a4.86,4.86,0,0,1-1.51.16c-2.73,0-5.08-1.19-5.68-4h-.16c-.45,2.71-2.8,4-5.45,4-4.62,0-6.67-2.79-6.67-11.32,0-10.21,3.49-13.72,11.82-15.23v-8.06c0-5.74-.6-6.69-3-6.69a6,6,0,0,0-5.31,3.43l1.52,7.81c-2.73-.08-4-1.75-4-4.7,0-4.07,3.41-8,9.78-8,2.88,0,8.63.32,8.63,9.41Zm-11.82-6.22c0,1.76,0,3.27,2.05,3.27s2.12-2.63,2.12-5.5V235.45c-3.41.64-4.17,1.92-4.17,5.51Z" transform="translate(-33.25 -156.24)"/><path class="cls-1" d="M304.49,219l7-.72v4.07h.15c.53-2.32,2.05-4.63,5-4.63,4,0,7.88,4.71,7.88,21.37,0,11.48-1.59,21.13-7.73,21.13-2.34,0-3.48-1-4.31-3.11h-.38v17.47l-7.65,1.59Zm12,5.9c0-4.15-.38-5-1.44-5-1.74,0-2.95,2.16-2.95,6.54v26.16c0,3.35,1.51,5.42,2.73,5.42,1.43,0,1.66-2.07,1.66-4.46Z" transform="translate(-33.25 -156.24)"/><path class="cls-1" d="M347.59,260.33a4.86,4.86,0,0,1-1.51.16c-2.73,0-5.08-1.19-5.69-4h-.15c-.45,2.71-2.8,4-5.45,4-4.62,0-6.67-2.79-6.67-11.32,0-10.21,3.49-13.72,11.82-15.23v-8.06c0-5.74-.61-6.69-2.95-6.69a6,6,0,0,0-5.31,3.43l1.52,7.81c-2.73-.08-4-1.75-4-4.7,0-4.07,3.41-8,9.78-8,2.87,0,8.63.32,8.63,9.41Zm-11.82-6.22c0,1.76,0,3.27,2.05,3.27s2.12-2.63,2.12-5.5V235.45c-3.41.64-4.17,1.92-4.17,5.51Z" transform="translate(-33.25 -156.24)"/><path class="cls-1" d="M361.3,259.7h-7.65V219.82l7.27-1.51v4.62l.16-.16c.68-1.83,2-5,5.07-5,3.71,0,5.3,4.47,5.3,8.06,0,2.55-.68,6.14-3.63,6.37V219.82a2.48,2.48,0,0,0-1.82-.95c-1.89,0-4.7,3.59-4.7,8.77Z" transform="translate(-33.25 -156.24)"/><path class="cls-1" d="M388,219.59h-5.38v40.82a4.06,4.06,0,0,1-1,.08c-4.55,0-6.67-2.63-6.67-7.17V219.59h-2.65v-.8h2.65v-4l6.89-10.37h.76v13.88H388Z" transform="translate(-33.25 -156.24)"/><path class="cls-1" d="M391.07,259.7V219.82l7.5-1.51v3.75l.16.08a6.9,6.9,0,0,1,6.36-4.39c2.88,0,4.77,1.6,5.38,4.55h.15a6.59,6.59,0,0,1,6.06-4.55c4.85,0,6.14,4.39,6.14,9.17V259.7h-7.65V224.93c0-3-.38-4.07-1.6-4.07s-2.8,2.23-2.8,6V259.7h-7.65V224.93c0-3-.38-4.07-1.59-4.07s-2.8,2.23-2.8,6V259.7Z" transform="translate(-33.25 -156.24)"/><path class="cls-1" d="M446.53,260.33a4.92,4.92,0,0,1-1.52.16c-2.72,0-5.07-1.19-5.68-4h-.15c-.46,2.71-2.8,4-5.46,4-4.62,0-6.66-2.79-6.66-11.32,0-10.21,3.48-13.72,11.82-15.23v-8.06c0-5.74-.61-6.69-3-6.69a6,6,0,0,0-5.3,3.43l1.51,7.81c-2.72-.08-4-1.75-4-4.7,0-4.07,3.41-8,9.77-8,2.88,0,8.64.32,8.64,9.41Zm-11.82-6.22c0,1.76,0,3.27,2,3.27s2.13-2.63,2.13-5.5V235.45c-3.41.64-4.17,1.92-4.17,5.51Z" transform="translate(-33.25 -156.24)"/><path class="cls-1" d="M472.13,259.7h-7.65V223.17c0-1.83-.3-2.47-1.59-2.47-1.06,0-2.27,1.76-2.27,4.39V259.7H453V219.82l7.34-1.51v3h.31c1.89-2.71,3.1-3.59,6.06-3.59,3.41,0,5.45,2.31,5.45,8.29Z" transform="translate(-33.25 -156.24)"/><path class="cls-1" d="M477.81,203.56l7.65-1.52v19.14h.16a6.48,6.48,0,0,1,5.91-3.43c3.41,0,5.45,2.31,5.45,8.29V259.7h-7.65V223.17c0-1.83-.3-2.47-1.59-2.47-1.06,0-2.28,1.76-2.28,4.39V259.7h-7.65Z" transform="translate(-33.25 -156.24)"/><path class="cls-1" d="M520.84,260.33a4.86,4.86,0,0,1-1.51.16c-2.73,0-5.08-1.19-5.68-4h-.15c-.46,2.71-2.81,4-5.46,4-4.62,0-6.67-2.79-6.67-11.32,0-10.21,3.49-13.72,11.82-15.23v-8.06c0-5.74-.6-6.69-3-6.69a6.05,6.05,0,0,0-5.31,3.43l1.52,7.81c-2.73-.08-4-1.75-4-4.7,0-4.07,3.41-8,9.78-8,2.88,0,8.63.32,8.63,9.41ZM507.51,213.6l7.8-13.31h7.12L509.86,213.6ZM509,254.11c0,1.76,0,3.27,2,3.27s2.12-2.63,2.12-5.5V235.45c-3.41.64-4.16,1.92-4.16,5.51Z" transform="translate(-33.25 -156.24)"/><path class="cls-1" d="M526.6,230V218.31H544L531.9,258.42h9.55V246.94h1.74V259.7h-19v-.64l12.43-39.47h-8.41V230Z" transform="translate(-33.25 -156.24)"/><path class="cls-1" d="M263.84,259.7h-7.65V223.17c0-1.83-.31-2.47-1.6-2.47-1.06,0-2.27,1.76-2.27,4.39V259.7h-7.65V219.83l7.35-1.52v3h.3c1.9-2.71,3.11-3.59,6.06-3.59,3.41,0,5.46,2.31,5.46,8.29Z" transform="translate(-33.25 -156.24)"/></g></g></svg>